# xmcd
#
# Track frame offsets: 
#        150
#        33429
#        52018
#        72426
#        74464
#        79032
#        87945
#        119207
#        135223
#        143341
#        150300
#        159255
#        171173
#        188635
#        191592
#        197505
#        198225
#        198975
#        202369
#        218538
#        220105
#        220696
#
# Disc length: 3320 seconds
#
# Revision: 0
# Processed by: cddbd v1.5.2PL0 Copyright (c) Steve Scherf et al.
# Submitted via: ExactAudioCopy v0.95b3
#
DISCID=3d0cf616
DTITLE=The Beatles  - AB  Road - Complete Purple Chick Set v1.1 Jan.14
DTITLE=Various Artist - D3  FLAC
DYEAR=1900
DGENRE=
TTITLE0=Madman 14.31
TTITLE1=Mean Mr. Mustard - Madman 14.32
TTITLE2=Watching Rainbows 14.33
TTITLE3=Improvisation 14.34
TTITLE4=Watching Rainbows 14.35
TTITLE5=Improvisation 14.36
TTITLE6=Improvisation 14.37
TTITLE7=Take This Hammer 14.38
TTITLE8=Johnny B. Goode 14.39
TTITLE9=Johnny B. Goode 14.40
TTITLE10=Get Back 14.41
TTITLE11=Improvisation 14.42
TTITLE12=Don't Start Running 14.43
TTITLE13=Madman 14.44
TTITLE14=You Know My Name (Look Up The Number) 14.45
TTITLE15=Improvisation 14.46
TTITLE16=Improvisation 14.47
TTITLE17=Oh! Darling 14.48
TTITLE18=Oh! Darling 14.49
TTITLE19=Ob-La-Di, Ob-La-Da 14.50
TTITLE20=Slate Announcement
TTITLE21=Dialogue
EXTD=
EXTT0=
EXTT1=
EXTT2=
EXTT3=
EXTT4=
EXTT5=
EXTT6=
EXTT7=
EXTT8=
EXTT9=
EXTT10=
EXTT11=
EXTT12=
EXTT13=
EXTT14=
EXTT15=
EXTT16=
EXTT17=
EXTT18=
EXTT19=
EXTT20=
EXTT21=
PLAYORDER=
